<svg xmlns="http://www.w3.org/2000/svg" viewBox="0 22.450000762939453 277.20001220703125 36.099998474121094" data-asc="1.16" width="277.20001220703125" height="36.099998474121094"><defs/><g fill="#000000"><g transform="translate(0, 0)"><path d="M3.25 58.00Q0 58.00 0 54.70L0 26.30Q0 23.00 3.30 23.00L21 23.00Q24.30 23.00 24.30 26.00Q24.30 29.00 21 29.00L6.50 29.00L6.50 37.15L19.50 37.15Q22.80 37.15 22.80 40.15Q22.80 43.15 19.50 43.15L6.50 43.15L6.50 54.70Q6.50 58.00 3.25 58.00ZM38.70 58.55Q33.40 58.55 30.10 55.42Q26.80 52.30 26.80 45.95Q26.80 42.00 28.27 39.17Q29.75 36.35 32.35 34.82Q34.95 33.30 38.35 33.30Q41.75 33.30 44.13 34.85Q46.50 36.40 47.75 38.82Q49 41.25 49 43.95Q49 46.10 48.15 46.70Q47.30 47.30 45.70 47.30L33 47.30Q33.25 50.65 34.83 51.87Q36.40 53.10 38.80 53.10Q41.45 53.10 43 51.55Q44.15 50.40 45.13 50.05Q46.10 49.70 47.20 50.50Q48.35 51.30 48.48 52.52Q48.60 53.75 47.40 55.05Q45.70 56.90 43.52 57.72Q41.35 58.55 38.70 58.55M33.25 42.50L42.80 42.50Q41.90 38.20 38.25 38.20Q36.25 38.20 35 39.20Q33.75 40.20 33.25 42.50ZM61.80 58.30Q57.85 58.50 55.23 56.60Q52.60 54.70 52.60 51.10Q52.60 48.55 54.13 46.72Q55.65 44.90 58.08 43.87Q60.50 42.85 63.10 42.80Q64.25 42.70 65.30 42.97Q66.35 43.25 67.25 43.70L67.25 42.10Q67.25 40.00 66.35 39.37Q65.45 38.75 63.80 38.75Q62.45 38.75 61.02 39.07Q59.60 39.40 58.25 39.95Q56.80 40.55 55.77 40.37Q54.75 40.20 54.05 39.05Q53.40 37.90 53.75 36.82Q54.10 35.75 55.60 35.10Q57.40 34.30 59.48 33.80Q61.55 33.30 63.80 33.30Q68.45 33.30 70.85 35.20Q73.25 37.10 73.25 42.10L73.25 52.60Q73.25 53.10 73.30 53.30Q73.45 54.00 73.88 54.22Q74.30 54.45 74.75 54.52Q75.20 54.60 75.53 54.72Q75.85 54.85 75.85 55.35Q75.85 56.30 75.33 57.05Q74.80 57.80 73.60 58.05Q73.05 58.15 72.45 58.22Q71.85 58.30 71.20 58.30Q68.25 58.30 67.45 56.30Q65.15 58.05 61.80 58.30M61.65 52.90Q64.30 52.75 65.88 51.87Q67.45 51.00 67.35 49.45Q67.30 48.30 66.22 47.95Q65.15 47.60 63.60 47.70Q61.30 47.80 59.95 48.87Q58.60 49.95 58.65 51.15Q58.70 52.00 59.42 52.47Q60.15 52.95 61.65 52.90ZM88.70 58.55Q86.30 58.55 84.63 58.02Q82.95 57.50 82.07 56.05Q81.20 54.60 81.20 51.95L81.20 39.30L80 39.30Q76.70 39.30 76.70 36.60Q76.70 35.30 77.40 34.60Q78.10 33.90 79.95 33.90L81.20 33.90L81.20 28.85Q81.20 27.25 82.02 26.40Q82.85 25.55 84.35 25.55Q87.45 25.55 87.45 28.85L87.45 33.90L90.65 33.90Q93.95 33.90 93.95 36.60Q93.95 39.30 90.70 39.30L87.45 39.30L87.45 50.30Q87.45 51.85 88.22 52.40Q89 52.95 90.45 52.95Q92.15 52.95 93.05 53.42Q93.95 53.90 93.95 55.55Q93.95 56.90 93.20 57.55Q92.45 58.20 91.25 58.37Q90.05 58.55 88.70 58.55ZM101.25 58.00Q98.10 58.00 98.10 54.70L98.10 25.75Q98.10 22.45 101.25 22.45Q104.40 22.45 104.40 25.75L104.40 36.60Q105.10 35.30 106.65 34.30Q108.20 33.30 110.35 33.30Q114.10 33.30 116.47 35.70Q118.85 38.10 118.85 42.80L118.85 54.70Q118.85 58.00 115.70 58.00Q112.55 58.00 112.55 54.70L112.55 44.35Q112.55 41.70 111.52 40.35Q110.50 39.00 108.75 39.00Q106.85 39.00 105.62 40.37Q104.40 41.75 104.40 44.70L104.40 54.70Q104.40 58.00 101.25 58.00ZM135.35 58.55Q130.05 58.55 126.75 55.42Q123.45 52.30 123.45 45.95Q123.45 42.00 124.92 39.17Q126.40 36.35 129.00 34.82Q131.60 33.30 135.00 33.30Q138.40 33.30 140.77 34.85Q143.15 36.40 144.40 38.82Q145.65 41.25 145.65 43.95Q145.65 46.10 144.80 46.70Q143.95 47.30 142.35 47.30L129.65 47.30Q129.90 50.65 131.47 51.87Q133.05 53.10 135.45 53.10Q138.10 53.10 139.65 51.55Q140.80 50.40 141.77 50.05Q142.75 49.70 143.85 50.50Q145 51.30 145.13 52.52Q145.25 53.75 144.05 55.05Q142.35 56.90 140.17 57.72Q138.00 58.55 135.35 58.55M129.90 42.50L139.45 42.50Q138.55 38.20 134.90 38.20Q132.90 38.20 131.65 39.20Q130.40 40.20 129.90 42.50ZM153.85 58.00Q150.70 58.00 150.70 54.70L150.70 37.20Q150.70 33.90 154.00 33.90Q155.05 33.90 155.90 34.42Q156.75 34.95 156.75 36.40L156.75 37.15Q157.65 35.40 159.50 34.35Q161.35 33.30 163.40 33.30Q165.00 33.30 165.85 34.27Q166.70 35.25 166.70 36.75Q166.70 38.15 165.95 38.82Q165.20 39.50 164.35 39.40Q163.95 39.35 163.47 39.32Q163.00 39.30 162.45 39.30Q160.15 39.30 158.57 40.77Q157.00 42.25 157.00 45.10L157.00 54.70Q157.00 58.00 153.85 58.00ZM173.55 58.00Q170.30 58.00 170.30 54.70L170.30 26.30Q170.30 23.00 173.55 23.00L174.25 23.00Q176.75 23.00 178.20 25.15L192.45 46.65L192.45 26.30Q192.45 23.00 195.75 23.00Q199 23.00 199 26.30L199 54.70Q199 58.00 195.90 58.00L195.35 58.00Q192.75 58.00 191.40 55.85L176.80 33.55L176.80 54.70Q176.80 58.00 173.55 58.00ZM215.85 58.55Q210.55 58.55 207.25 55.42Q203.95 52.30 203.95 45.95Q203.95 42.00 205.42 39.17Q206.90 36.35 209.50 34.82Q212.10 33.30 215.50 33.30Q218.90 33.30 221.27 34.85Q223.65 36.40 224.90 38.82Q226.15 41.25 226.15 43.95Q226.15 46.10 225.30 46.70Q224.45 47.30 222.85 47.30L210.15 47.30Q210.40 50.65 211.97 51.87Q213.55 53.10 215.95 53.10Q218.60 53.10 220.15 51.55Q221.30 50.40 222.27 50.05Q223.25 49.70 224.35 50.50Q225.50 51.30 225.63 52.52Q225.75 53.75 224.55 55.05Q222.85 56.90 220.67 57.72Q218.50 58.55 215.85 58.55M210.40 42.50L219.95 42.50Q219.05 38.20 215.40 38.20Q213.40 38.20 212.15 39.20Q210.90 40.20 210.40 42.50ZM234.30 58.00Q231.20 58.00 231.20 54.90L231.20 25.55Q231.20 22.45 234.30 22.45L234.40 22.45Q237.50 22.45 237.50 25.55L237.50 43.90L243.70 35.75Q244.55 34.60 245.57 34.10Q246.60 33.60 247.50 33.60Q248.60 33.60 249.35 34.22Q250.10 34.85 250.15 35.92Q250.20 37.00 249.15 38.30L243.95 44.75L250.55 54.25Q251.30 55.30 251.17 56.22Q251.05 57.15 250.32 57.72Q249.60 58.30 248.55 58.30Q247.00 58.30 246.22 57.90Q245.45 57.50 244.90 56.70L237.50 45.75L237.50 54.90Q237.50 58.00 234.40 58.00L234.30 58.00ZM265.45 58.55Q262.10 58.55 259.42 57.00Q256.75 55.45 255.22 52.60Q253.70 49.75 253.70 45.95Q253.70 42.10 255.22 39.27Q256.75 36.45 259.42 34.87Q262.10 33.30 265.45 33.30Q268.85 33.30 271.50 34.87Q274.15 36.45 275.67 39.27Q277.20 42.10 277.20 45.95Q277.20 49.75 275.67 52.60Q274.15 55.45 271.50 57.00Q268.85 58.55 265.45 58.55M265.45 52.85Q267.85 52.85 269.38 51.07Q270.90 49.30 270.90 45.95Q270.90 42.55 269.38 40.77Q267.85 39.00 265.45 39.00Q263.05 39.00 261.57 40.77Q260.10 42.55 260.10 45.95Q260.10 49.30 261.57 51.07Q263.05 52.85 265.45 52.85Z"/></g></g></svg>